<?xml version="1.0" encoding="UTF-8" standalone="no"?>
<svg
   xmlns:dc="http://purl.org/dc/elements/1.1/"
   xmlns:cc="http://creativecommons.org/ns#"
   xmlns:rdf="http://www.w3.org/1999/02/22-rdf-syntax-ns#"
   xmlns:svg="http://www.w3.org/2000/svg"
   xmlns="http://www.w3.org/2000/svg"
   xmlns:sodipodi="http://sodipodi.sourceforge.net/DTD/sodipodi-0.dtd"
   xmlns:inkscape="http://www.inkscape.org/namespaces/inkscape"
   version="1.1"
   id="svg2"
   width="512"
   height="512"
   viewBox="0 0 512 512"
   sodipodi:docname="Arrows.svg"
   inkscape:version="1.0.1 (3bc2e813f5, 2020-09-07)">
  <metadata
     id="metadata8">
    <rdf:RDF>
      <cc:Work
         rdf:about="">
        <dc:format>image/svg+xml</dc:format>
        <dc:type
           rdf:resource="http://purl.org/dc/dcmitype/StillImage" />
        <dc:title></dc:title>
      </cc:Work>
    </rdf:RDF>
  </metadata>
  <defs
     id="defs6" />
  <sodipodi:namedview
     pagecolor="#ffffff"
     bordercolor="#666666"
     borderopacity="1"
     objecttolerance="10"
     gridtolerance="10"
     guidetolerance="10"
     inkscape:pageopacity="0"
     inkscape:pageshadow="2"
     inkscape:window-width="1600"
     inkscape:window-height="837"
     id="namedview4"
     showgrid="false"
     inkscape:zoom="0.70710678"
     inkscape:cx="45.107059"
     inkscape:cy="342.80535"
     inkscape:window-x="-8"
     inkscape:window-y="-8"
     inkscape:window-maximized="1"
     inkscape:current-layer="layer1"
     inkscape:pagecheckerboard="true"
     inkscape:document-rotation="0"
     fit-margin-top="0"
     fit-margin-left="0"
     fit-margin-right="0"
     fit-margin-bottom="0">
    <inkscape:grid
       type="xygrid"
       id="grid821"
       originx="-648.25001"
       originy="149.53124" />
  </sodipodi:namedview>
  <g
     inkscape:groupmode="layer"
     id="layer1"
     inkscape:label="Layer"
     style="display:inline"
     transform="translate(-648.25001,149.53124)">
    <g
       id="g866" />
    <g
       id="g996"
       transform="matrix(4.8436725,0,0,4.8436725,-2479.6607,601.99912)">
      <g
         id="g858"
         transform="matrix(0.6296875,0,0,0.6296875,648.25001,-150.16093)">
        <path
           style="fill:#f3d573;fill-opacity:1;stroke:none;stroke-width:1px;stroke-linecap:butt;stroke-linejoin:miter;stroke-opacity:1"
           d="M 18.380859,1 0,32 68,151 H 92 L 160,31.53125 141,1 Z m 38.884766,3.71875 4.158203,5.837891 37.029297,-0.08008 3.759765,-5.2773432 37.66992,0.1601562 15.35547,26.232422 -19.35351,34.310547 h -6.23829 l -19.43554,32.791015 3.19922,6.238282 -23.433598,42.14844 H 70.380859 L 46.466797,105.73242 49.666016,99.333984 30.951172,66.222656 23.914062,65.662109 4.7988281,32.152344 19.914062,4.9589844 Z"
           id="path823" />
        <path
           style="fill:#917e43;fill-opacity:1;stroke:#f3d573;stroke-width:1px;stroke-linecap:butt;stroke-linejoin:miter;stroke-opacity:1"
           d="M 54.099974,12.259931 H 24.039578 l -11.379752,19.960011 16,26.96001 c 5.008728,-0.0028 7.032543,-0.05019 9.746112,4.522352 l 18.294447,30.827342 c 2.652744,5.397115 -2.061009,9.743694 -1.76599,10.273084 l 19.511264,35.01162 11.266115,0.0766 19.534406,-34.24686 c -2.85831,-6.103764 -2.51715,-7.80067 -0.74491,-10.835568 L 123.86173,61.65435 c 1.79839,-3.079686 5.59021,-2.548881 8.106,-3.006276 L 147.20825,31.886893 135.84165,12 h -29.40177 c -0.41511,2.579544 -3.99425,5.97728 -7.135967,6.000331 l -39.166416,0.287361 c -2.132644,0.01565 -6.037523,-4.027761 -6.037523,-6.027761 z"
           id="path826"
           inkscape:connector-curvature="0"
           sodipodi:nodetypes="ccccscscccssccccssc" />
      </g>
      <rect
         style="fill:#f3d573;fill-opacity:1;stroke:none;stroke-width:0.25;stroke-linecap:round;stroke-linejoin:round;stroke-opacity:1"
         id="rect860"
         width="3.875"
         height="68"
         x="696.75"
         y="-130.41" />
      <path
         style="fill:#f3d573;fill-opacity:1;stroke:none;stroke-width:0.99994px;stroke-linecap:butt;stroke-linejoin:miter;stroke-opacity:1"
         d="m 701.631,-116.045 c 4.8226,6.45794 2.73732,12.9159 0,19.373849 z"
         id="path862"
         sodipodi:nodetypes="ccc" />
      <path
         style="display:inline;fill:#f3d573;fill-opacity:1;stroke:none;stroke-width:1px;stroke-linecap:butt;stroke-linejoin:miter;stroke-opacity:1"
         d="m 695.74617,-116.045 c -4.82289,6.45833 -2.73748,12.91668 0,19.375 z"
         id="path862-5"
         sodipodi:nodetypes="ccc" />
      <path
         style="fill:#f3d573;fill-opacity:1;stroke:none;stroke-width:1px;stroke-linecap:butt;stroke-linejoin:miter;stroke-opacity:1"
         d="m 677.375,-130.41 h 3.938 v 35.91 l -3.938,-7.312 z"
         id="path879"
         sodipodi:nodetypes="ccccc" />
      <path
         style="display:inline;fill:#f3d573;fill-opacity:1;stroke:none;stroke-width:1px;stroke-linecap:butt;stroke-linejoin:miter;stroke-opacity:1"
         d="m 719.62498,-130.41 h -3.938 v 36.739999 l 3.938,-6.671179 z"
         id="path879-5"
         sodipodi:nodetypes="ccccc" />
      <path
         style="display:inline;fill:#f3d573;fill-opacity:1;stroke:none;stroke-width:0.99994px;stroke-linecap:butt;stroke-linejoin:miter;stroke-opacity:1"
         d="m 720.584,-116.045 c 2.36477,3.16666 3.06857,6.13019 2.849,9.29685 l -2.849,4.76377 z"
         id="path862-0"
         sodipodi:nodetypes="cccc" />
      <path
         style="display:inline;fill:#f3d573;fill-opacity:1;stroke:none;stroke-width:0.99994px;stroke-linecap:butt;stroke-linejoin:miter;stroke-opacity:1"
         d="m 682.307,-116.045 c 4.8226,6.45794 2.73732,12.9159 0,19.373853 z"
         id="path862-2"
         sodipodi:nodetypes="ccc" />
      <path
         style="display:inline;fill:#f3d573;fill-opacity:1;stroke:none;stroke-width:0.99994px;stroke-linecap:butt;stroke-linejoin:miter;stroke-opacity:1"
         d="m 714.689,-116.045 c -4.8226,6.45794 -2.73732,12.91591 0,19.373843 z"
         id="path862-5-0"
         sodipodi:nodetypes="ccc" />
      <path
         style="display:inline;fill:#f3d573;fill-opacity:1;stroke:none;stroke-width:0.99994px;stroke-linecap:butt;stroke-linejoin:miter;stroke-opacity:1"
         d="m 676.373,-116.045 c -1.90656,2.55308 -2.73347,5.10616 -2.86727,7.65924 l 2.86727,4.9051 z"
         id="path862-5-7"
         sodipodi:nodetypes="cccc" />
    </g>
  </g>
</svg>
